<svg xmlns="http://www.w3.org/2000/svg" xmlns:xlink="http://www.w3.org/1999/xlink" width="21" height="21" x="0" y="0" enable-background="new 0 0 21 21" overflow="visible" version="1.1" viewBox="0 0 21 21" xml:space="preserve"><path fill="#FFF" d="M17.646,16.501L14,12.855c0.566-0.811,0.903-1.792,0.903-2.855c0-2.762-2.238-5-5-5c-2.761,0-5,2.238-5,5	s2.239,5,5,5c1.064,0,2.045-0.337,2.856-0.903l3.646,3.646c0.343,0.343,0.898,0.344,1.241,0.001	C17.99,17.399,17.99,16.845,17.646,16.501z M9.903,13.2c-1.767,0-3.199-1.433-3.199-3.2s1.433-3.2,3.199-3.2	c1.77,0,3.199,1.433,3.199,3.2S11.673,13.2,9.903,13.2z"/><rect width="21" height="21" fill="#4387FD" opacity="0"/></svg>